<svg width="80" height="90" viewBox="0 0 80 90" fill="none" xmlns="http://www.w3.org/2000/svg">
<path fill-rule="evenodd" clip-rule="evenodd" d="M0.71776 56.5545C-0.253037 58.0002 -0.238012 59.8243 0.75649 61.2565L18.7567 87.179C19.9249 88.8614 22.1767 89.6286 24.2667 89.0562L76.211 74.8296C79.0457 74.0533 80.4719 71.1663 79.2329 68.7126L45.8406 2.58367C44.2121 -0.641285 39.303 -0.906003 37.27 2.12151L0.71776 56.5545ZM44.9534 17.7014C44.2437 16.2022 41.8404 16.4331 41.4881 18.0344L28.6322 76.4728C28.3611 77.705 29.6248 78.7573 30.944 78.3978L66.8333 68.6173C67.8809 68.3318 68.4205 67.2755 67.9868 66.3594L44.9534 17.7014Z" fill="#ffffff"/>
</svg>
